{"title":"Looper 2012 DVDRip 350MB x264 AAC - ViZNU [P2PDL]","uid":7833445,"size":376791621,"categoryP":"video","categoryS":"movies","magnet":"?xt=urn:btih:9adf22512bd3d056287d768094b4bf5f0fac92d6&amp;dn=Looper+2012+DVDRip+350MB+x264+AAC+-+ViZNU+%5BP2PDL%5D&amp;tr=udp%3A%2F%2Ftracker.openbittorrent.com%3A80&amp;tr=udp%3A%2F%2Fopen.demonii.com%3A1337&amp;tr=udp%3A%2F%2Ftracker.coppersurfer.tk%3A6969&amp;tr=udp%3A%2F%2Fexodus.desync.com%3A6969","seeders":1,"leechers":0,"uploader":"ValidusVyto","files":-1,"time":1353134792,"description":"_________________________  Visit us at _________________________\n  &lt;a href=&quot;\nhttp://tinym.eu&quot; rel=&quot;nofollow&quot; target=&quot;_NEW&quot;&gt;\nhttp://tinym.eu&lt;/a&gt;  ____________________________ &lt;a href=&quot; http://p2pdl.com&quot; rel=&quot;nofollow&quot; target=&quot;_NEW&quot;&gt; http://p2pdl.com&lt;/a&gt;\n\n\nLooper 2012 DVDRip 350MB x264 AAC - ViZNU [P2PDL]\n\n\t\t\t\t\t\nGenre: Action | Sci-Fi | Thriller\nPlot: In 2074, when the mob wants to get rid of someone, the target is sent 30 years into the past,\nwhere a hired gun awaits. Someone like Joe, who one day learns the mob wants to 'close the loop' by\ntransporting back Joe's future self.  \nDirector: Rian Johnson\nStars: Joseph Gordon-Levitt, Bruce Willis and Emily Blunt.\nRated: R for strong violence, language, some sexuality/nudity and drug content. &lt;a href=&quot;\nhttp://cinemahouse.in/movie/219/Looper&quot; rel=&quot;nofollow&quot; target=&quot;_NEW&quot;&gt;\nhttp://cinemahouse.in/movie/219/Looper&lt;/a&gt;\n\n\nGeneral\nRelease name                   : Looper 2012 DVDRip 350MB x264 AAC - ViZNU [P2PDL]\nFormat                         : MPEG-4\nFile size                      : 352 MiB\nDuration                       : 1h 53mn\nOverall bit rate mode          : Variable\nOverall bit rate               : 432 Kbps\nSource                         : DVDR-Ltu(Thanks)\n\nVideo\nID                             : 1\nFormat                         : AVC\nFormat/Info                    : Advanced Video Codec\nCodec ID                       : avc1\nCodec ID/Info                  : Advanced Video Coding\nDuration                       : 1h 53mn\nBit rate                       : 389 Kbps\nMaximum bit rate               : 4 190 Kbps\nWidth                          : 720 pixels\nHeight                         : 288 pixels(cropped)\nDisplay aspect ratio           : 2.500\nFrame rate mode                : Constant\nFrame rate                     : 25.000 fps\nStream size                    : 316 MiB (90%)\nWriting library                : x264 \n\nAudio\nID                             : 2\nFormat                         : AAC\nFormat/Info                    : Advanced Audio Codec\nFormat profile                 : HE-AAC / LC\nCodec ID                       : 40\nDuration                       : 1h 53mn\nBit rate mode                  : Variable\nBit rate                       : 40.0 Kbps\nMaximum bit rate               : 51.2 Kbps\nChannel(s)                     : 2 channels\nChannel positions              : Front: L R\nSampling rate                  : 44.1 KHz / 22.05 KHz\nStream size                    : 32.5 MiB (9%)\nLanguage                       : English\n\n\nSubtitle                       : Yes(English)\n\n\nScreens:\n\n &lt;a href=&quot;\nhttp://www.shotpix.com/images/64802897885804887551.png&quot; rel=&quot;nofollow&quot; target=&quot;_NEW&quot;&gt;\nhttp://www.shotpix.com/images/64802897885804887551.png&lt;/a&gt; &lt;a href=&quot;\nhttp://www.shotpix.com/images/99576305666044983269.png&quot; rel=&quot;nofollow&quot; target=&quot;_NEW&quot;&gt;\nhttp://www.shotpix.com/images/99576305666044983269.png&lt;/a&gt; &lt;a href=&quot;\nhttp://www.shotpix.com/images/68457753347332643246.png&quot; rel=&quot;nofollow&quot; target=&quot;_NEW&quot;&gt;\nhttp://www.shotpix.com/images/68457753347332643246.png&lt;/a&gt; &lt;a href=&quot;\nhttp://www.shotpix.com/images/14379255551868748862.png&quot; rel=&quot;nofollow&quot; target=&quot;_NEW&quot;&gt;\nhttp://www.shotpix.com/images/14379255551868748862.png&lt;/a&gt; &lt;a href=&quot;\nhttp://www.shotpix.com/images/43371351560634996222.png&quot; rel=&quot;nofollow&quot; target=&quot;_NEW&quot;&gt;\nhttp://www.shotpix.com/images/43371351560634996222.png&lt;/a&gt; &lt;a href=&quot;\nhttp://www.shotpix.com/images/72418431112617940660.png&quot; rel=&quot;nofollow&quot; target=&quot;_NEW&quot;&gt;\nhttp://www.shotpix.com/images/72418431112617940660.png&lt;/a&gt;\n\n\n----------------------------------------------------------------------------------------------------\n\n\nRecommend to you to use latest version of VLC player. Install K-Lite Codec Pack or shark007 codecs\nin case of any kind of problem in playback (For non-VLC Media Player users). Alternatively, install\nCore AVC codecs, the fastest decoder that there is coupled with Community Center Codec Pack and play\non Windows Media Player Classic. Check sample to be sure.\nEnjoy!\n\n\nGreets to: Vitamin_X, a2zRG, srkfan, staff members at ExtraTorrent, TPB,KAT, 1337x, PublicHD, Ahashare,\nBTScene, SilverTorrent, TorrentMafia, DigTorrent, P2PDL, and all others.\n\n\nEncoder Notes: Looking For Early Access To Anything You Can Provide DVDScr, R5, DVDR, BluRay, Direct\nAudio, Early Music Releases, Seedboxes, Dedicated Servers anything u can provide, Advance / Promo CDs/\nDVDs. If You Got anything to offer contact me at &quot;&lt;a class=&quot;__cf_email__&quot; href=&quot;/cdn-cgi/l/email-protection&quot; data-cfemail=&quot;c8b8baaf88a0bdbba0e6aba7a5&quot;&gt;[email&amp;#160;protected]&lt;/a&gt;&lt;script cf-hash='f9e31' type=&quot;text/javascript&quot;&gt;\n/* &lt;![CDATA[ */!function(){try{var t=&quot;currentScript&quot;in document?document.currentScript:function(){for(var t=document.getElementsByTagName(&quot;script&quot;),e=t.length;e--;)if(t[e].getAttribute(&quot;cf-hash&quot;))return t[e]}();if(t&amp;&amp;t.previousSibling){var e,r,n,i,c=t.previousSibling,a=c.getAttribute(&quot;data-cfemail&quot;);if(a){for(e=&quot;&quot;,r=parseInt(a.substr(0,2),16),n=2;a.length-n;n+=2)i=parseInt(a.substr(n,2),16)^r,e+=String.fromCharCode(i);e=document.createTextNode(e),c.parentNode.replaceChild(e,c)}}}catch(u){}}();/* ]]&gt; */&lt;/script&gt;&quot;.\n\n\nFacebook Fan Page: www . facebook . com / p2pdl","torrent":{"xt":"urn:btih:9adf22512bd3d056287d768094b4bf5f0fac92d6","amp;dn":"Looper+2012+DVDRip+350MB+x264+AAC+-+ViZNU+%5BP2PDL%5D","amp;tr":["udp%3A%2F%2Ftracker.openbittorrent.com%3A80","udp%3A%2F%2Fopen.demonii.com%3A1337","udp%3A%2F%2Ftracker.coppersurfer.tk%3A6969","udp%3A%2F%2Fexodus.desync.com%3A6969"],"infoHash":"9adf22512bd3d056287d768094b4bf5f0fac92d6","infoHashBuffer":{"type":"Buffer","data":[154,223,34,81,43,211,208,86,40,125,118,128,148,180,191,95,15,172,146,214]},"announce":[],"urlList":[]}}